<?xml version="1.0" encoding="UTF-8" standalone="no"?>
<!-- Created with Inkscape (http://www.inkscape.org/) -->

<svg
   xmlns:dc="http://purl.org/dc/elements/1.1/"
   xmlns:cc="http://creativecommons.org/ns#"
   xmlns:rdf="http://www.w3.org/1999/02/22-rdf-syntax-ns#"
   xmlns:svg="http://www.w3.org/2000/svg"
   xmlns="http://www.w3.org/2000/svg"
   xmlns:sodipodi="http://sodipodi.sourceforge.net/DTD/sodipodi-0.dtd"
   xmlns:inkscape="http://www.inkscape.org/namespaces/inkscape"
   width="16"
   height="16"
   id="svg2"
   version="1.1"
   inkscape:version="0.48.2 r9819"
   sodipodi:docname="wink.svg">
  <defs
     id="defs4" />
  <sodipodi:namedview
     id="base"
     pagecolor="#ffffff"
     bordercolor="#666666"
     borderopacity="1.0"
     inkscape:pageopacity="0.0"
     inkscape:pageshadow="2"
     inkscape:zoom="22.627417"
     inkscape:cx="8.2909321"
     inkscape:cy="8.1436894"
     inkscape:document-units="px"
     inkscape:current-layer="layer1"
     showgrid="true"
     inkscape:snap-page="true"
     inkscape:snap-nodes="true"
     inkscape:snap-bbox="true"
     inkscape:bbox-paths="false"
     inkscape:bbox-nodes="true"
     inkscape:object-nodes="true"
     inkscape:window-width="1916"
     inkscape:window-height="1036"
     inkscape:window-x="4"
     inkscape:window-y="0"
     inkscape:window-maximized="1">
    <inkscape:grid
       type="xygrid"
       id="grid2985"
       empspacing="4"
       visible="true"
       enabled="true"
       snapvisiblegridlinesonly="true" />
  </sodipodi:namedview>
  <metadata
     id="metadata7">
    <rdf:RDF>
      <cc:Work
         rdf:about="">
        <dc:format>image/svg+xml</dc:format>
        <dc:type
           rdf:resource="http://purl.org/dc/dcmitype/StillImage" />
        <dc:title></dc:title>
      </cc:Work>
    </rdf:RDF>
  </metadata>
  <g
     inkscape:label="Layer 1"
     inkscape:groupmode="layer"
     id="layer1"
     transform="translate(0,-1036.3622)">
    <path
       sodipodi:type="arc"
       style="fill:#ffd615;fill-opacity:1;stroke:#000000;stroke-opacity:1"
       id="path2987"
       sodipodi:cx="8"
       sodipodi:cy="8"
       sodipodi:rx="8"
       sodipodi:ry="8"
       d="m 16,8 c 0,4.418278 -3.581722,8 -8,8 C 3.581722,16 0,12.418278 0,8 0,3.581722 3.581722,0 8,0 c 4.418278,0 8,3.581722 8,8 z"
       transform="matrix(0.94117647,0,0,0.94117647,0.47058824,1036.8328)" />
    <path
       sodipodi:type="arc"
       style="fill:#000000;fill-opacity:1;stroke:none"
       id="path3767"
       sodipodi:cx="11.080111"
       sodipodi:cy="5.1408601"
       sodipodi:rx="1.0417198"
       sodipodi:ry="0.8523162"
       d="m 12.12183,5.1408601 c 0,0.4707212 -0.466393,0.8523162 -1.041719,0.8523162 -0.575326,0 -1.04172,-0.381595 -1.04172,-0.8523162 0,-0.4707213 0.466394,-0.8523162 1.04172,-0.8523162 0.575326,0 1.041719,0.3815949 1.041719,0.8523162 z"
       transform="matrix(0.95995115,0,0,1.1732926,0.363635,1036.3305)" />
    <path
       sodipodi:type="arc"
       style="fill:none;stroke:#000000;stroke-opacity:1"
       id="path3769"
       sodipodi:cx="8"
       sodipodi:cy="8"
       sodipodi:rx="5"
       sodipodi:ry="3.9286735"
       d="M 12.829629,9.0168155 C 12.11492,11.11263 9.3732353,12.356379 6.7059048,11.794807 4.9804444,11.431534 3.6327065,10.372569 3.1703708,9.0168154"
       transform="matrix(0.9039527,0,0,1.0181448,0.76837842,1036.7364)"
       sodipodi:start="0.26179939"
       sodipodi:end="2.8797933"
       sodipodi:open="true" />
    <path
       style="fill:#000000;fill-opacity:1;stroke:none"
       d="M 4,7 4,6 7,6 7,7 z"
       id="path2995"
       inkscape:connector-curvature="0"
       sodipodi:nodetypes="ccccc"
       transform="translate(0,1036.3622)" />
  </g>
</svg>
