<?xml version="1.0" encoding="UTF-8" standalone="no"?>
<!-- Created with Inkscape (http://www.inkscape.org/) -->

<svg
   xmlns:dc="http://purl.org/dc/elements/1.1/"
   xmlns:cc="http://creativecommons.org/ns#"
   xmlns:rdf="http://www.w3.org/1999/02/22-rdf-syntax-ns#"
   xmlns:svg="http://www.w3.org/2000/svg"
   xmlns="http://www.w3.org/2000/svg"
   xmlns:sodipodi="http://sodipodi.sourceforge.net/DTD/sodipodi-0.dtd"
   xmlns:inkscape="http://www.inkscape.org/namespaces/inkscape"
   width="24"
   height="24"
   id="svg2985"
   version="1.1"
   inkscape:version="0.48.2 r9819"
   sodipodi:docname="warning.svg">
  <defs
     id="defs2987">
    <animateTransform
       id="animateTransform4248"
       values="0 12 12;30 12 12;60 12 12;90 12 12;120 12 12;150 12 12;180 12 12;210 12 12;240 12 12;270 12 12;300 12 12;330 12 12"
       calcMode="discrete"
       repeatCount="indefinite"
       dur="1s"
       type="rotate"
       attributeType="xml"
       attributeName="transform" />
  </defs>
  <sodipodi:namedview
     id="base"
     pagecolor="#ffffff"
     bordercolor="#666666"
     borderopacity="1.0"
     inkscape:pageopacity="0.0"
     inkscape:pageshadow="2"
     inkscape:zoom="31.672167"
     inkscape:cx="2.901217"
     inkscape:cy="9.9603785"
     inkscape:current-layer="layer1"
     showgrid="true"
     inkscape:grid-bbox="true"
     inkscape:document-units="px"
     inkscape:window-width="1920"
     inkscape:window-height="1036"
     inkscape:window-x="1280"
     inkscape:window-y="0"
     inkscape:window-maximized="1">
    <inkscape:grid
       type="xygrid"
       id="grid2993"
       empspacing="4"
       visible="true"
       enabled="true"
       snapvisiblegridlinesonly="true"
       spacingx="1px"
       spacingy="1px" />
  </sodipodi:namedview>
  <metadata
     id="metadata2990">
    <rdf:RDF>
      <cc:Work
         rdf:about="">
        <dc:format>image/svg+xml</dc:format>
        <dc:type
           rdf:resource="http://purl.org/dc/dcmitype/StillImage" />
        <dc:title />
      </cc:Work>
    </rdf:RDF>
  </metadata>
  <g
     id="layer1"
     inkscape:label="Layer 1"
     inkscape:groupmode="layer">
    <path
       inkscape:connector-curvature="0"
       style="font-size:medium;font-style:normal;font-variant:normal;font-weight:normal;font-stretch:normal;text-indent:0;text-align:start;text-decoration:none;line-height:normal;letter-spacing:normal;word-spacing:normal;text-transform:none;direction:ltr;block-progression:tb;writing-mode:lr-tb;text-anchor:start;baseline-shift:baseline;color:#000000;fill:#1f1f1f;fill-opacity:1;fill-rule:nonzero;stroke:none;stroke-width:2;marker:none;visibility:visible;display:inline;overflow:visible;enable-background:accumulate;font-family:Sans;-inkscape-font-specification:Sans"
       d="m 11.875,5.0000001 c -0.315255,0.044062 -0.603835,0.2484727 -0.75,0.53125 l -6,10.9999999 C 4.8047206,17.13498 5.3166,17.994206 6,18 l 12,0 c 0.6834,-0.0058 1.195279,-0.86502 0.875,-1.46875 l -6,-10.9999999 c -0.18552,-0.355769 -0.601345,-0.5766757 -1,-0.53125 z M 11.34375,9 A 0.50005,0.50005 0 0 1 11.40625,9 0.50005,0.50005 0 0 1 11.5,9 l 1,0 A 0.50005,0.50005 0 0 1 13,9.5625 l -0.5,3.875 0,0.125 a 0.50005,0.50005 0 0 1 -1,0 l 0,-0.125 L 11,9.5625 A 0.50005,0.50005 0 0 1 11.34375,9 z M 12,15 c 0.552285,0 1,0.447715 1,1 0,0.552285 -0.447715,1 -1,1 -0.552285,0 -1,-0.447715 -1,-1 0,-0.552285 0.447715,-1 1,-1 z"
       id="path3884-1" />
    <path
       style="font-size:medium;font-style:normal;font-variant:normal;font-weight:normal;font-stretch:normal;text-indent:0;text-align:start;text-decoration:none;line-height:normal;letter-spacing:normal;word-spacing:normal;text-transform:none;direction:ltr;block-progression:tb;writing-mode:lr-tb;text-anchor:start;baseline-shift:baseline;color:#000000;fill:#eeeeee;fill-opacity:1;fill-rule:nonzero;stroke:none;stroke-width:2;marker:none;visibility:visible;display:inline;overflow:visible;enable-background:accumulate;font-family:Sans;-inkscape-font-specification:Sans"
       d="M 11.875 6 C 11.559745 6.044062 11.271165 6.2484727 11.125 6.53125 L 5.125 17.53125 C 4.8047206 18.13498 5.3166 18.994206 6 19 L 18 19 C 18.6834 18.9942 19.195279 18.13498 18.875 17.53125 L 12.875 6.53125 C 12.68948 6.175481 12.273655 5.9545743 11.875 6 z M 11.34375 10 A 0.50005 0.50005 0 0 1 11.40625 10 A 0.50005 0.50005 0 0 1 11.5 10 L 12.5 10 A 0.50005 0.50005 0 0 1 13 10.5625 L 12.5 14.4375 L 12.5 14.5625 A 0.50005 0.50005 0 0 1 11.5 14.5625 L 11.5 14.4375 L 11 10.5625 A 0.50005 0.50005 0 0 1 11.34375 10 z M 12 16 C 12.552285 16 13 16.447715 13 17 C 13 17.552285 12.552285 18 12 18 C 11.447715 18 11 17.552285 11 17 C 11 16.447715 11.447715 16 12 16 z "
       id="path3884" />
  </g>
</svg>
