<?xml version="1.0" encoding="UTF-8" standalone="no"?>
<!-- Generator: Adobe Illustrator 15.0.0, SVG Export Plug-In . SVG Version: 6.00 Build 0)  -->

<svg
   xmlns:dc="http://purl.org/dc/elements/1.1/"
   xmlns:cc="http://creativecommons.org/ns#"
   xmlns:rdf="http://www.w3.org/1999/02/22-rdf-syntax-ns#"
   xmlns:svg="http://www.w3.org/2000/svg"
   xmlns="http://www.w3.org/2000/svg"
   xmlns:xlink="http://www.w3.org/1999/xlink"
   xmlns:sodipodi="http://sodipodi.sourceforge.net/DTD/sodipodi-0.dtd"
   xmlns:inkscape="http://www.inkscape.org/namespaces/inkscape"
   version="1.1"
   id="Layer_1"
   x="0px"
   y="0px"
   width="90"
   height="90"
   viewBox="0 0 90 90"
   enable-background="new 0 0 95 111"
   xml:space="preserve"
   inkscape:version="0.48.2 r9819"
   sodipodi:docname="cat.svg"
   inkscape:export-filename="/Users/nfd/Dropbox/Public/Web/S2/UserIcons/cat.png"
   inkscape:export-xdpi="90"
   inkscape:export-ydpi="90"><metadata
   id="metadata3125"><rdf:RDF><cc:Work
       rdf:about=""><dc:format>image/svg+xml</dc:format><dc:type
         rdf:resource="http://purl.org/dc/dcmitype/StillImage" /><dc:title /></cc:Work></rdf:RDF></metadata><defs
   id="defs3123"><linearGradient
     id="linearGradient4724"><stop
       id="stop4726"
       offset="0"
       style="stop-color:#e6e6e6;stop-opacity:1;" /><stop
       id="stop4728"
       offset="1"
       style="stop-color:#ffffff;stop-opacity:1;" /></linearGradient><linearGradient
     id="linearGradient3167"><stop
       style="stop-color:#86a3e1;stop-opacity:1;"
       offset="0"
       id="stop3169" /><stop
       style="stop-color:#bed2ed;stop-opacity:1;"
       offset="1"
       id="stop3171" /></linearGradient><linearGradient
     inkscape:collect="always"
     xlink:href="#linearGradient3167"
     id="linearGradient3173"
     x1="45.078056"
     y1="0"
     x2="45.078056"
     y2="90"
     gradientUnits="userSpaceOnUse" /><linearGradient
     inkscape:collect="always"
     xlink:href="#linearGradient4724"
     id="linearGradient4722"
     gradientUnits="userSpaceOnUse"
     x1="45.078056"
     y1="0"
     x2="45.078056"
     y2="90"
     gradientTransform="translate(-1.2646484e-6,21.000005)" /><clipPath
     clipPathUnits="userSpaceOnUse"
     id="clipPath7315"><path
       inkscape:connector-curvature="0"
       style="fill:#f9a637;stroke:#000000;stroke-width:1.41896284;display:inline"
       d="m 58.917888,44.306935 -7.40625,6.6875 -4.15625,0.90625 c -1.476735,-0.19156 -3.138968,-0.300507 -4.84375,-0.28125 -4.683591,0.05676 -4.735847,0.06888 -9.03125,1.3125 l -12,-8.34375 1.46875,18.28125 c 0.441745,-0.497731 -4.517034,5.109535 -5.84375,12.25 -0.998126,-0.654347 -2.374728,-1.490688 -4.0625,-2.3125 -3.911269,-1.900397 -6.0650299,-2.447466 -6.1562489,-2.46875 -0.203723,-0.05068 -0.419087,0.07651 -0.46875,0.28125 -0.05169,0.20575 0.07854,0.417059 0.28125,0.46875 0.02331,0.0041 2.204104,0.546395 6.0312489,2.40625 1.792302,0.872672 3.226219,1.772806 4.21875,2.4375 -0.196917,1.377186 -0.214611,2.80532 -0.0625,4.25 -1.180557,0.103539 -2.731156,0.226334 -3.875,0.25 -1.748364,0.03142 -5.6489849,-0.463682 -5.6874989,-0.46875 -0.20879,-0.02635 -0.412162,0.135973 -0.4375,0.34375 -0.02737,0.209804 0.133946,0.411148 0.34375,0.4375 0.156086,0.02128 3.7217329,0.46875 5.5937489,0.46875 l 0.1875,0 c 1.18619,-0.02615 2.783253,-0.177163 3.96875,-0.28125 0.264792,1.708465 0.815029,3.432127 1.78125,5.125 2.052544,3.602166 4.944595,6.591237 8.5,8.90625 -0.03871,0.06648 -0.111905,0.217956 -0.125,0.21875 -0.04865,0.0061 -0.108613,-0.0071 -0.15625,0 -0.07399,0.0061 -0.144761,0.02213 -0.21875,0.03125 -0.03852,0.0061 -0.05726,-0.0071 -0.09375,0 -0.110476,0.01824 -0.236314,0.03919 -0.34375,0.0625 -0.01926,0.0061 -0.04628,0.02517 -0.0625,0.03125 -0.09325,0.02027 -0.159795,0.03919 -0.25,0.0625 -0.03649,0.01014 -0.08953,0.0201 -0.125,0.03125 -0.04188,0.01147 -0.08392,0.0195 -0.125,0.03125 -0.851526,0.02038 -1.519916,0.238429 -1.46875,0.21875 -1.917627,0.613195 -3.532211,1.992185 -5.21875,3.437495 l -1.75,1.4375 c -0.401364,0.32535 -0.862316,0.59307 -1.34375,0.90625 -1.514236,0.96591 -3.5,2.26006 -3.5,4.875 0,0.4338 0.03767,0.89644 0.15625,1.40625 0.137842,0.58482 0.45995,1.76871 0.96875,3.15625 0.296969,0.60205 0.550332,1.22836 0.75,1.875 0.147978,0.0476 0.292563,0.0845 0.4375,0.125 1.054094,1.92061 2.510961,3.82436 4.34375,4.90625 -0.700045,0.36545 -1.196021,0.64622 -2.0625,1.09375 0,0 0.03645,0.002 0.0625,0 -0.02229,0.0394 -0.124934,0.15171 -0.5625,0.375 l -3.28125,1.53125 -0.25,0.0937 c -1.273011,0.49765 -2.524131,0.8929 -3.281249,1.125 -0.152032,0.0466 -0.296787,0.0926 -0.40625,0.125 -0.216899,0.0649 -0.3437499,0.0937 -0.3437499,0.0937 0,0 -0.01301,0.0132 -0.03125,0 -0.178384,-0.12872 -1.221241,-0.84172 -2.625,-0.84375 -0.701373,-0.003 -1.462306,0.17566 -2.28125,0.6875 -4.28425401,2.68691 4.909128,18.33197 10.1562489,16.78125 6.358981,-1.87303 1.439386,-8.22106 0.53125,-9.84375 8.115454,-1.92878 16.96875,-7.875 16.96875,-7.875 1.574035,1.57505 3.496392,3.41159 5.46875,5.59375 4.531559,5.01705 11.34375,11.1875 11.34375,11.1875 0,0 18.379541,2.90786 19.03125,0 2.215609,-9.86787 -14.15625,-7.53125 -14.15625,-7.53125 0,0 -4.34808,-4.18592 -6.34375,-6.15625 -1.776744,-1.75546 -4.691145,-4.9136 -7,-7.46875 l 0.1875,-0.25 c 1.162536,-0.88583 2.384749,-2.31952 3.9375,-4.5625 0.515894,-0.73887 2.21875,-0.90625 2.21875,-0.90625 0,0 1.269492,-0.005 3.78125,2.40625 3.286926,3.69235 5.80008,2.41863 8.65625,1.0625 2.578458,-1.23145 9.074375,-5.02286 7.4375,-8.625 -0.08818,-0.18446 -0.18378,-0.34678 -0.3125,-0.53125 -0.08919,-0.12263 -0.202024,-0.24932 -0.3125,-0.375 -0.05372,-0.0598 -0.09544,-0.12466 -0.15625,-0.1875 -1.071317,-1.09361 -2.016358,-1.50608 -2.90625,-1.5 -2.07574,0.0203 -3.824933,2.28781 -6,3.3125 -0.209804,0.0973 -0.408101,0.20929 -0.625,0.28125 -3.456188,1.14936 -4.841671,-2.73372 -6.53125,-4.625 -0.622944,-0.7082 -1.253077,-1.25402 -1.8125,-1.71875 0.53468,0.004 1.180648,-0.0172 1.53125,0 2.756842,-0.0355 5.611901,-0.23528 8.59375,-0.71875 14.576669,-2.349235 20.440641,-9.40836 21.6875,-14.968745 0.571257,0.141257 1.166828,0.258955 1.78125,0.34375 1.770663,0.23717 3.151159,0.28125 3.90625,0.28125 0.381093,0 0.598648,-0.001 0.625,0 0.209802,-0.01115 0.385132,-0.195433 0.375002,-0.40625 -0.0101,-0.211831 -0.19543,-0.354899 -0.406252,-0.34375 -0.01926,10e-4 -1.811575,0.06741 -4.40625,-0.28125 -0.587043,-0.08109 -1.16627,-0.206186 -1.71875,-0.34375 0.165664,-1.084557 0.159427,-2.109135 0,-3 -0.242882,-1.342487 -0.824497,-2.492758 -1.5625,-3.46875 1.466258,-0.229091 3.216378,-0.571931 4.5,-0.96875 2.679813,-0.831107 4.516722,-2.281924 4.593752,-2.34375 0.16217,-0.132774 0.19426,-0.368069 0.0625,-0.53125 -0.13278,-0.164194 -0.39932,-0.194261 -0.5625,-0.0625 -0.0182,0.01318 -1.772558,1.432239 -4.312502,2.21875 -1.418168,0.438925 -3.367732,0.749641 -4.84375,0.96875 -2.316271,-2.548832 -5.59375,-3.65625 -5.59375,-3.65625 l -0.0625,0.375 c 0,0 0.114618,-4.665374 -2.8125,-10.0625 -1.736202,-3.209896 -7.71875,-8.03125 -7.71875,-8.03125 l -2.375,-11.21875 z m -16.375,36.40625 c -0.05537,0.172916 -0.10583,0.359223 -0.15625,0.53125 1.89205,0.629101 9.88161,3.263531 13.125,4.09375 2.966646,0.754077 7.906532,1.608268 9.71875,1.90625 -0.621303,0.658804 -1.846064,1.862463 -3.46875,3.0625 -2.195338,1.62674 -5.596675,3.5625 -9.34375,3.5625 -1.108818,0 -2.22919,-0.195767 -3.28125,-0.53125 -3.461256,-1.098683 -5.739156,-2.717333 -6.8125,-4.84375 -0.914554,-1.811925 -0.754768,-4.461571 0.0625,-7.25 -0.01357,-0.0045 -0.08081,-0.02695 -0.09375,-0.03125 l 0.25,-0.5 z"
       id="path7317" /></clipPath></defs><sodipodi:namedview
   pagecolor="#ffffff"
   bordercolor="#666666"
   borderopacity="1"
   objecttolerance="10"
   gridtolerance="10"
   guidetolerance="10"
   inkscape:pageopacity="0"
   inkscape:pageshadow="2"
   inkscape:window-width="1916"
   inkscape:window-height="1036"
   id="namedview3121"
   showgrid="true"
   inkscape:snap-page="true"
   inkscape:snap-bbox="false"
   inkscape:zoom="8"
   inkscape:cx="73.074531"
   inkscape:cy="32.068949"
   inkscape:window-x="4"
   inkscape:window-y="0"
   inkscape:window-maximized="1"
   inkscape:current-layer="layer1"
   inkscape:snap-global="false"><inkscape:grid
     type="xygrid"
     id="grid5251"
     empspacing="5"
     visible="true"
     enabled="true"
     snapvisiblegridlinesonly="true" /></sodipodi:namedview>

 	
<g
   inkscape:groupmode="layer"
   id="layer1"
   inkscape:label="Layer"
   transform="translate(0,-21)"
   style="display:inline"><rect
     style="display:inline;fill:url(#linearGradient3173);fill-opacity:1;fill-rule:evenodd;stroke:none"
     id="rect3133"
     width="90"
     height="90"
     x="0"
     y="0"
     transform="translate(0,21)" /><path
     style="fill:url(#linearGradient4722);fill-opacity:1;fill-rule:evenodd;stroke:none;display:inline"
     clip-path="url(#clipPath7315)"
     d="m 0,21.000004 90,0 L 90,111 0,111 z"
     id="rect3133-7" /><g
     style="display:inline"
     transform="matrix(1.0135449,0,0,1.0135449,-9.5161265,34.50267)"
     id="g5008" /></g></svg>