<?xml version="1.0" encoding="UTF-8" standalone="no"?>
<!-- Created with Inkscape (http://www.inkscape.org/) -->

<svg
   xmlns:dc="http://purl.org/dc/elements/1.1/"
   xmlns:cc="http://creativecommons.org/ns#"
   xmlns:rdf="http://www.w3.org/1999/02/22-rdf-syntax-ns#"
   xmlns:svg="http://www.w3.org/2000/svg"
   xmlns="http://www.w3.org/2000/svg"
   xmlns:sodipodi="http://sodipodi.sourceforge.net/DTD/sodipodi-0.dtd"
   xmlns:inkscape="http://www.inkscape.org/namespaces/inkscape"
   width="16"
   height="16"
   id="svg2"
   version="1.1"
   inkscape:version="0.48.2 r9819"
   sodipodi:docname="wide-eyed.svg">
  <defs
     id="defs4" />
  <sodipodi:namedview
     id="base"
     pagecolor="#ffffff"
     bordercolor="#666666"
     borderopacity="1.0"
     inkscape:pageopacity="0.0"
     inkscape:pageshadow="2"
     inkscape:zoom="45.254834"
     inkscape:cx="11.815607"
     inkscape:cy="7.4584225"
     inkscape:document-units="px"
     inkscape:current-layer="layer1"
     showgrid="true"
     inkscape:snap-page="true"
     inkscape:snap-nodes="true"
     inkscape:snap-bbox="true"
     inkscape:bbox-paths="false"
     inkscape:bbox-nodes="true"
     inkscape:object-nodes="true"
     inkscape:window-width="1916"
     inkscape:window-height="1036"
     inkscape:window-x="4"
     inkscape:window-y="0"
     inkscape:window-maximized="1"
     inkscape:snap-bbox-midpoints="true">
    <inkscape:grid
       type="xygrid"
       id="grid2985"
       empspacing="4"
       visible="true"
       enabled="true"
       snapvisiblegridlinesonly="true"
       spacingx="0.25px"
       spacingy="0.25px" />
  </sodipodi:namedview>
  <metadata
     id="metadata7">
    <rdf:RDF>
      <cc:Work
         rdf:about="">
        <dc:format>image/svg+xml</dc:format>
        <dc:type
           rdf:resource="http://purl.org/dc/dcmitype/StillImage" />
        <dc:title></dc:title>
      </cc:Work>
    </rdf:RDF>
  </metadata>
  <g
     inkscape:label="Layer 1"
     inkscape:groupmode="layer"
     id="layer1"
     transform="translate(0,-1036.3622)">
    <path
       sodipodi:type="arc"
       style="fill:#ffd615;fill-opacity:1;stroke:#000000;stroke-opacity:1"
       id="path2987"
       sodipodi:cx="8"
       sodipodi:cy="8"
       sodipodi:rx="8"
       sodipodi:ry="8"
       d="m 16,8 c 0,4.418278 -3.581722,8 -8,8 C 3.581722,16 0,12.418278 0,8 0,3.581722 3.581722,0 8,0 c 4.418278,0 8,3.581722 8,8 z"
       transform="matrix(0.94117647,0,0,0.94117647,0.47058824,1036.8328)" />
    <path
       sodipodi:type="arc"
       style="fill:#000000;fill-opacity:1;stroke:none"
       id="path3767"
       sodipodi:cx="11.080111"
       sodipodi:cy="5.1408601"
       sodipodi:rx="1.0417198"
       sodipodi:ry="0.8523162"
       d="m 12.12183,5.1408601 a 1.0417198,0.8523162 0 1 1 -2.083439,0 1.0417198,0.8523162 0 1 1 2.083439,0 z"
       transform="matrix(0.95995115,0,0,-1.1732926,-2.6363649,1054.3939)" />
    <rect
       style="fill:#000000;fill-opacity:1;stroke:none"
       id="rect3928"
       width="4"
       height="6.9999828"
       x="9"
       y="1039.3622"
       ry="2" />
    <rect
       style="fill:#ffffff;fill-opacity:1;stroke:none"
       id="rect3928-3"
       width="2"
       height="5.0000172"
       x="10"
       y="1040.3622"
       ry="1" />
    <path
       sodipodi:type="arc"
       style="fill:#363636;fill-opacity:1;stroke:none"
       id="path3767-8"
       sodipodi:cx="11.080111"
       sodipodi:cy="5.1408601"
       sodipodi:rx="2.0833354"
       sodipodi:ry="1.7043781"
       d="m 13.163446,5.1408601 a 2.0833354,1.7043781 0 1 1 -4.1666708,0 2.0833354,1.7043781 0 1 1 4.1666708,0 z"
       transform="matrix(0.47999952,0,0,-0.58674401,5.6815523,1046.3786)" />
    <rect
       style="fill:#000000;fill-opacity:1;stroke:none"
       id="rect3928-34"
       width="4"
       height="6.9999828"
       x="3"
       y="1039.3621"
       ry="2" />
    <rect
       style="fill:#ffffff;fill-opacity:1;stroke:none"
       id="rect3928-3-6"
       width="2"
       height="5.0000172"
       x="4"
       y="1040.3621"
       ry="1" />
    <path
       sodipodi:type="arc"
       style="fill:#363636;fill-opacity:1;stroke:none"
       id="path3767-8-9"
       sodipodi:cx="11.080111"
       sodipodi:cy="5.1408601"
       sodipodi:rx="2.0833354"
       sodipodi:ry="1.7043781"
       d="m 13.163446,5.1408601 a 2.0833354,1.7043781 0 1 1 -4.1666708,0 2.0833354,1.7043781 0 1 1 4.1666708,0 z"
       transform="matrix(0.47999952,0,0,-0.58673389,-0.31844775,1046.3785)" />
  </g>
</svg>
